<mxfile host="65bd71144e">
    <diagram id="FyHou5HS_Z7X--Yc93I3" name="Page-1">
        <mxGraphModel dx="874" dy="621" grid="1" gridSize="10" guides="1" tooltips="1" connect="1" arrows="1" fold="1" page="1" pageScale="1" pageWidth="850" pageHeight="1100" math="0" shadow="0">
            <root>
                <mxCell id="0"/>
                <mxCell id="1" parent="0"/>
                <mxCell id="5" value="" style="edgeStyle=none;html=1;" parent="1" source="2" target="4" edge="1">
                    <mxGeometry relative="1" as="geometry"/>
                </mxCell>
                <mxCell id="2" value="MD" style="rounded=0;whiteSpace=wrap;html=1;" parent="1" vertex="1">
                    <mxGeometry x="190" y="190" width="40" height="20" as="geometry"/>
                </mxCell>
                <mxCell id="3" value="h&lt;sub&gt;MD&lt;/sub&gt;" style="rounded=0;whiteSpace=wrap;html=1;" parent="1" vertex="1">
                    <mxGeometry x="320" y="190" width="50" height="20" as="geometry"/>
                </mxCell>
                <mxCell id="6" value="" style="edgeStyle=none;html=1;exitX=1;exitY=0.5;exitDx=0;exitDy=0;" parent="1" source="4" target="3" edge="1">
                    <mxGeometry relative="1" as="geometry"/>
                </mxCell>
                <mxCell id="4" value="H" style="rhombus;whiteSpace=wrap;html=1;" parent="1" vertex="1">
                    <mxGeometry x="260" y="182.5" width="35" height="35" as="geometry"/>
                </mxCell>
                <mxCell id="35" value="&lt;h1&gt;&lt;font style=&quot;font-size: 20px;&quot;&gt;Legende&lt;/font&gt;&lt;/h1&gt;&lt;p&gt;H&lt;span style=&quot;white-space: pre;&quot;&gt;&#9;&lt;/span&gt;&lt;span style=&quot;white-space: pre;&quot;&gt;&#9;&lt;/span&gt;Hash&lt;br&gt;S&lt;span style=&quot;white-space: pre;&quot;&gt;&#9;&lt;/span&gt;&lt;span style=&quot;white-space: pre;&quot;&gt;&#9;&lt;/span&gt;Sign&lt;br&gt;MD&lt;span style=&quot;white-space: pre;&quot;&gt;&#9;&lt;/span&gt;&lt;span style=&quot;white-space: pre;&quot;&gt;&#9;&lt;/span&gt;Messdaten&lt;br&gt;TSA&lt;span style=&quot;white-space: pre;&quot;&gt;&#9;&lt;/span&gt;&lt;span style=&quot;white-space: pre;&quot;&gt;&#9;&lt;/span&gt;Time Stamping Authority&lt;br&gt;TPM&lt;span style=&quot;white-space: pre;&quot;&gt;&#9;&lt;/span&gt;Trusted Platform Module&lt;br&gt;&lt;br&gt;&lt;/p&gt;" style="text;html=1;strokeColor=none;fillColor=none;spacing=5;spacingTop=-20;whiteSpace=wrap;overflow=hidden;rounded=0;fontSize=14;" parent="1" vertex="1">
                    <mxGeometry x="190" y="240" width="260" height="159.82" as="geometry"/>
                </mxCell>
                <mxCell id="44" value="" style="group" parent="1" vertex="1" connectable="0">
                    <mxGeometry x="425" y="230" width="80" height="70" as="geometry"/>
                </mxCell>
                <mxCell id="14" value="&lt;span style=&quot;font-size: 14px;&quot;&gt;TPM&amp;nbsp;&lt;/span&gt;" style="rounded=0;whiteSpace=wrap;html=1;verticalAlign=bottom;align=right;" parent="44" vertex="1">
                    <mxGeometry width="80" height="70" as="geometry"/>
                </mxCell>
                <mxCell id="8" value="S" style="rhombus;whiteSpace=wrap;html=1;" parent="44" vertex="1">
                    <mxGeometry x="24.649999999999977" y="10.180000000000007" width="30.7" height="29.82" as="geometry"/>
                </mxCell>
                <mxCell id="43" value="" style="endArrow=classicThin;html=1;fontSize=14;entryX=0;entryY=1;entryDx=0;entryDy=0;endFill=1;" parent="44" source="7" target="8" edge="1">
                    <mxGeometry width="50" height="50" relative="1" as="geometry">
                        <mxPoint x="19.649999999999977" y="40" as="sourcePoint"/>
                        <mxPoint x="69.64999999999998" y="-10" as="targetPoint"/>
                    </mxGeometry>
                </mxCell>
                <mxCell id="61" value="&lt;span style=&quot;font-size: 8px; background-color: rgb(255, 255, 255);&quot;&gt;k&lt;/span&gt;&lt;span style=&quot;background-color: rgb(255, 255, 255);&quot;&gt;&lt;font style=&quot;font-size: 8px;&quot;&gt;&lt;sub&gt;MS&lt;/sub&gt;&lt;/font&gt;&lt;/span&gt;" style="text;html=1;strokeColor=none;fillColor=none;align=center;verticalAlign=middle;whiteSpace=wrap;rounded=0;fontSize=11;" parent="44" vertex="1">
                    <mxGeometry x="3.4499999999999886" y="50" width="30" height="20" as="geometry"/>
                </mxCell>
                <mxCell id="7" value="" style="sketch=0;aspect=fixed;html=1;points=[];align=center;image;fontSize=12;image=img/lib/mscae/Key.svg;rotation=-45;" parent="44" vertex="1">
                    <mxGeometry x="12.249999999999943" y="40" width="12.4" height="20" as="geometry"/>
                </mxCell>
                <mxCell id="29" style="edgeStyle=elbowEdgeStyle;html=1;exitX=1;exitY=0.5;exitDx=0;exitDy=0;fontSize=14;" parent="1" source="8" edge="1">
                    <mxGeometry relative="1" as="geometry">
                        <mxPoint x="560" y="220" as="targetPoint"/>
                        <Array as="points">
                            <mxPoint x="520" y="240"/>
                        </Array>
                    </mxGeometry>
                </mxCell>
                <mxCell id="30" style="edgeStyle=elbowEdgeStyle;html=1;exitX=1;exitY=0.75;exitDx=0;exitDy=0;entryX=0;entryY=0.5;entryDx=0;entryDy=0;fontSize=14;" parent="1" source="3" target="8" edge="1">
                    <mxGeometry relative="1" as="geometry">
                        <Array as="points">
                            <mxPoint x="400" y="230"/>
                            <mxPoint x="430" y="230"/>
                        </Array>
                    </mxGeometry>
                </mxCell>
                <mxCell id="60" style="edgeStyle=elbowEdgeStyle;html=1;exitX=0.5;exitY=1;exitDx=0;exitDy=0;entryX=0.5;entryY=0;entryDx=0;entryDy=0;fontSize=11;endArrow=classicThin;endFill=1;" parent="1" target="59" edge="1">
                    <mxGeometry relative="1" as="geometry">
                        <mxPoint x="720" y="280" as="sourcePoint"/>
                    </mxGeometry>
                </mxCell>
                <mxCell id="59" value="to&lt;br&gt;MB" style="ellipse;whiteSpace=wrap;html=1;fontSize=11;" parent="1" vertex="1">
                    <mxGeometry x="690" y="310" width="60" height="30" as="geometry"/>
                </mxCell>
                <mxCell id="63" value="" style="group" vertex="1" connectable="0" parent="1">
                    <mxGeometry x="400" y="97" width="120" height="75.5" as="geometry"/>
                </mxCell>
                <mxCell id="31" value="&lt;span style=&quot;font-size: 14px;&quot;&gt;TSA&amp;nbsp;&lt;/span&gt;" style="rounded=0;whiteSpace=wrap;html=1;verticalAlign=top;align=right;" parent="63" vertex="1">
                    <mxGeometry x="20" y="3" width="80" height="72.5" as="geometry"/>
                </mxCell>
                <mxCell id="41" style="edgeStyle=elbowEdgeStyle;html=1;exitX=1;exitY=0.5;exitDx=0;exitDy=0;fontSize=14;entryX=0;entryY=0.5;entryDx=0;entryDy=0;" parent="63" source="32" edge="1">
                    <mxGeometry relative="1" as="geometry">
                        <mxPoint x="160" y="93" as="targetPoint"/>
                        <Array as="points">
                            <mxPoint x="120" y="73"/>
                        </Array>
                    </mxGeometry>
                </mxCell>
                <mxCell id="32" value="S" style="rhombus;whiteSpace=wrap;html=1;" parent="63" vertex="1">
                    <mxGeometry x="43.66000000000008" y="35.5" width="32.68" height="30.5" as="geometry"/>
                </mxCell>
                <mxCell id="33" value="" style="sketch=0;aspect=fixed;html=1;points=[];align=center;image;fontSize=12;image=img/lib/mscae/Key.svg;rotation=-45;" parent="63" vertex="1">
                    <mxGeometry x="32.81000000000006" y="18" width="10.85" height="17.5" as="geometry"/>
                </mxCell>
                <mxCell id="45" value="" style="endArrow=classic;html=1;fontSize=14;entryX=0.205;entryY=0.319;entryDx=0;entryDy=0;entryPerimeter=0;" parent="63" source="33" target="32" edge="1">
                    <mxGeometry width="50" height="50" relative="1" as="geometry">
                        <mxPoint x="-23.659999999999968" y="93" as="sourcePoint"/>
                        <mxPoint x="26.340000000000032" y="43" as="targetPoint"/>
                    </mxGeometry>
                </mxCell>
                <mxCell id="50" style="edgeStyle=elbowEdgeStyle;html=1;exitX=1;exitY=0.5;exitDx=0;exitDy=0;entryX=0;entryY=0.5;entryDx=0;entryDy=0;fontSize=14;endArrow=classicThin;endFill=1;" parent="63" target="32" edge="1">
                    <mxGeometry relative="1" as="geometry">
                        <Array as="points">
                            <mxPoint y="73"/>
                        </Array>
                        <mxPoint x="-30" y="99" as="sourcePoint"/>
                    </mxGeometry>
                </mxCell>
                <mxCell id="62" value="&lt;span style=&quot;font-size: 8px; background-color: rgb(255, 255, 255);&quot;&gt;k&lt;sub&gt;TSA&lt;/sub&gt;&lt;/span&gt;" style="text;html=1;strokeColor=none;fillColor=none;align=center;verticalAlign=middle;whiteSpace=wrap;rounded=0;fontSize=11;" parent="63" vertex="1">
                    <mxGeometry x="20" width="30" height="20" as="geometry"/>
                </mxCell>
            </root>
        </mxGraphModel>
    </diagram>
</mxfile>
